:FULLY-SPECIFIED
:FORCE-ALL-JOINTS-BE-3DOF
:DEGREES
340
root 8.15614 16.0897 -20.4162 10.3593 23.5868 3.93452
lfemur -8.64763 15.9674 -9.6795
ltibia 41.4892 -0 0
lfoot 4.67113 27.7721 0.216069
ltoes -24.9713 0 0
rfemur -47.0717 -14.2446 10.5114
rtibia 54.6772 -0 0
rfoot 1.94734 -17.3501 -0.178321
rtoes 8.80683 -0 0
lowerback -0.314313 -1.70523 -1.53719
upperback 1.95675 -2.24504 -0.0911394
thorax 2.24388 -1.14385 0.722673
lowerneck -5.65973 -8.65174 -0.424487
upperneck -2.01278 -11.5317 6.48753
head 0.754828 -5.7057 1.8124
lclavicle -5.03976e-14 -4.92551e-16 -4.59901e-31
lhumerus -48.15 -35.0963 109.612
lradius 57.3345 -0 0
lwrist 18.6343 0 0
lhand 6.29729 11.7445 0.0328887
lfingers 7.12502 -0 0
lthumb 31.6008 38.9772 0.0131581
rclavicle -5.03976e-14 -4.92551e-16 -4.59901e-31
rhumerus -22.6535 18.9456 -74.0142
rradius 84.0294 -0 0
rwrist 3.01012 0 0
rhand -10.5186 -10.4693 1.11915
rfingers 7.12502 -0 0
rthumb 15.4199 -39.0433 1.31359
341
root 8.08589 16.1257 -20.2036 10.1738 21.624 3.26778
lfemur -7.94011 14.4874 -8.87958
ltibia 41.8282 -0 0
lfoot 6.63092 28.3947 0.193517
ltoes -23.0903 0 0
rfemur -46.9924 -15.0261 12.5655
rtibia 54.3923 -0 0
rfoot 0.906773 -16.2947 -0.160436
rtoes 4.87604 -0 0
lowerback -0.643863 -1.62412 -1.27019
upperback 1.85329 -2.14095 0.0598585
thorax 2.31517 -1.08903 0.721776
lowerneck -5.88701 -8.31764 -0.476062
upperneck -1.62111 -11.1058 6.37533
head 0.897784 -5.48096 1.77843
lclavicle -5.06931e-14 1.13835e-15 -2.67547e-31
lhumerus -48.0893 -33.7291 109.244
lradius 57.0177 -0 0
lwrist 19.1043 0 0
lhand 5.52511 11.4854 0.0296238
lfingers 7.12502 -0 0
lthumb 30.8656 38.8657 0.011839
rclavicle -5.06931e-14 1.13835e-15 -2.67547e-31
rhumerus -24.3891 18.2361 -76.3001
rradius 83.952 -0 0
rwrist 2.9149 0 0
rhand -14.5655 -12.2597 1.00475
rfingers 7.12502 -0 0
rthumb 11.5256 -41.1986 1.18154
342
root 8.01884 16.1599 -20.0017 10.0171 19.7587 2.64898
lfemur -7.29671 13.0811 -8.14094
ltibia 42.1702 -0 0
lfoot 8.46567 28.9632 0.152822
ltoes -21.2165 0 0
rfemur -46.9297 -15.7651 14.517
rtibia 54.1159 -0 0
rfoot -0.0887906 -15.2829 -0.127561
rtoes 1.20611 -0 0
lowerback -0.949146 -1.54521 -1.01854
upperback 1.75756 -2.04126 0.202806
thorax 2.38114 -1.03669 0.721743
lowerneck -6.10195 -8.00065 -0.52514
upperneck -1.25076 -10.7008 6.27005
head 1.033 -5.2676 1.74623
lclavicle -5.02266e-14 2.67904e-15 -7.79946e-32
lhumerus -48.0402 -32.4376 108.9
lradius 56.7181 -0 0
lwrist 19.536 0 0
lhand 4.79117 11.237 0.0236053
lfingers 7.12502 -0 0
lthumb 30.1668 38.7571 0.00941831
rclavicle -5.02266e-14 2.67904e-15 -7.79946e-32
rhumerus -26.0005 17.5021 -78.4371
rradius 83.8693 -0 0
rwrist 2.8357 0 0
rhand -18.4652 -13.9839 0.793547
rfingers 7.12502 -0 0
rthumb 7.77508 -43.2637 0.934544
343
root 7.95746 16.1911 -19.8182 9.88811 18.0622 2.09772
lfemur -6.73782 11.8074 -7.48604
ltibia 42.5074 -0 0
lfoot 10.0994 29.4496 0.10083
ltoes -19.3968 0 0
rfemur -46.8767 -16.432 16.2882
rtibia 53.8575 -0 0
rfoot -1.00329 -14.3521 -0.0848153
rtoes -2.04725 0 0
lowerback -1.21737 -1.47201 -0.792264
upperback 1.67353 -1.95001 0.332316
thorax 2.43901 -0.988923 0.722909
lowerneck -6.29599 -7.71266 -0.56971
upperneck -0.91558 -10.332 6.17464
head 1.15529 -5.07366 1.71681
lclavicle -4.908e-14 4.08965e-15 6.64472e-32
lhumerus -48.0012 -31.2716 108.593
lradius 56.4476 -0 0
lwrist 19.9094 0 0
lhand 4.12249 11.0081 0.0157566
lfingers 7.12502 -0 0
lthumb 29.53 38.6551 0.00626766
rclavicle -4.908e-14 4.08965e-15 6.64472e-32
rhumerus -27.4316 16.7872 -80.3477
rradius 83.7826 -0 0
rwrist 2.78015 0 0
rhand -22.0615 -15.5775 0.520747
rfingers 7.12502 -0 0
rthumb 4.31884 -45.1558 0.614136
344
root 7.90424 16.2178 -19.6608 9.78384 16.606 1.63307
lfemur -6.2817 10.7257 -6.9355
ltibia 42.8317 -0 0
lfoot 11.4561 29.8263 0.0465638
ltoes -17.6781 0 0
rfemur -46.8231 -16.9971 17.8002
rtibia 53.6265 -0 0
rfoot -1.80093 -13.5393 -0.0394076
rtoes -4.72832 0 0
lowerback -1.43579 -1.40815 -0.601342
upperback 1.60513 -1.87124 0.443025
thorax 2.48598 -0.94782 0.725599
lowerneck -6.46059 -7.46554 -0.607623
upperneck -0.629334 -10.015 6.0917
head 1.25945 -4.90721 1.69117
lclavicle -4.73353e-14 5.3303e-15 1.13546e-31
lhumerus -47.9698 -30.281 108.331
lradius 56.2178 -0 0
lwrist 20.2046 0 0
lhand 3.54617 10.8076 0.00737231
lfingers 7.12502 -0 0
lthumb 28.9811 38.5633 0.00291454
rclavicle -4.73353e-14 5.3303e-15 1.13546e-31
rhumerus -28.6317 16.1413 -81.959
rradius 83.6933 -0 0
rwrist 2.75589 0 0
rhand -25.2008 -16.9826 0.236246
rfingers 7.12502 -0 0
rthumb 1.30367 -46.7989 0.279159
345
root 7.86167 16.2389 -19.5372 9.70011 15.4616 1.27409
lfemur -5.9456 9.89612 -6.50917
ltibia 43.1352 0 0
lfoot 12.4603 30.0664 0
ltoes -16.1074 0 0
rfemur -46.7567 -17.4311 18.9732
rtibia 53.4326 0 0
rfoot -2.44603 -12.8812 0
rtoes -6.6814 0 0
lowerback -1.59169 -1.35738 -0.455707
upperback 1.55628 -1.80903 0.529581
thorax 2.51926 -0.915477 0.730137
lowerneck -6.58717 -7.27114 -0.636643
upperneck -0.405685 -9.76516 6.02366
head 1.34033 -4.77631 1.67023
lclavicle -4.50744e-14 6.36111e-15 0
lhumerus -47.9433 -29.5156 108.126
lradius 56.0405 0 0
lwrist 20.4017 0 0
lhand 3.08925 10.6443 0
lfingers 7.12502 0 0
lthumb 28.5458 38.4852 0
rclavicle -4.50744e-14 6.36111e-15 0
rhumerus -29.5543 15.617 -83.2014
rradius 83.6027 0 0
rwrist 2.77055 0 0
rhand -27.7324 -18.1472 0
rfingers 7.12502 0 0
rthumb -1.12744 -768.124 0
